Patient4_TMGait_0pt4_02_right_11_EMG.mot
version=1
nRows=40
nColumns=33
inDegrees=no
endheader
time	1LAddLong	2LGlutMax	3LGlutMed	4LIliopsoas	5LSemiMemb	6LBicFemLong	7LRecFem	8LVastMed	9LVastLat	10LGasMed	11LTibAnt	12lTibPost	13LPeroneusLong	14LSol	15LExtDigLong	16LFlexDigLong	17RAddLong	18RGlutMax	19RGlutMed	20RIliopsoas	21RSemiMemb	22RBicFemLong	23RRecFem	24RVastMed	25RVastLat	26RGasMed	27RTibAnt	28RTibPost	29RPeroneusLong	30RSol	31RExtDigLong	32RFlexDigLong
14.492	-0.001526	0.013733	-0.1709	0.034332	-0.003357	-0.031281	0.14297	0.000305	0.15595	-0.046234	-0.018158	0.003204	0.15472	-0.14679	-0.053101	0.001373	-0.016479	-1.6978	-0.37308	0.10513	0.080109	-0.20721	0.42648	0.093231	-0.057068	-0.006409	0.3093	-0.070038	-0.15976	0.37689	-0.001221	-0.013123
14.493	-0.005798	0.036163	-0.19852	0.008392	-0.004578	-0.039978	0.11414	-0.001984	0.159	0.028534	-0.050049	0.005188	-0.015717	-0.17853	0.76035	-0.006104	-0.036926	-1.6084	-0.7402	0.29465	0.13489	-0.33585	0.43655	0.027466	0.15091	-0.012054	-0.22034	-0.009766	-0.25757	0.16205	0.002441	-0.008087
14.494	-0.003357	0.035553	-0.23422	-0.010071	-0.003662	-0.036316	0.034027	0.005341	0.13397	0.077972	-0.006561	0.005951	-0.1442	-0.28137	0.46295	-0.019531	-0.009308	-1.5689	-0.19455	0.22247	0.016174	-0.21423	0.3479	-0.15915	0.066376	0.001984	-0.28595	0.075684	-0.21591	-0.065155	0.00351	-0.004883
14.495	-0.005035	-0.003967	-0.26001	0.007019	-0.003204	-0.038757	0.11993	0.004272	0.15121	0.046692	-0.067749	0.007019	-0.079498	-0.21149	0.46341	-0.018005	0.014343	-1.5662	-0.18692	0.031128	-0.20783	-0.09964	-0.071716	-0.38177	-0.075531	0.01297	-0.21454	0.019989	-0.17471	-0.24384	0.000916	0.003204
14.496	-0.001984	-0.034027	-0.26504	0.003357	-0.005188	-0.042725	0.19089	0.00473	0.15228	0.028992	0.05661	0.006409	-0.043182	-0.030823	0.074615	0.015564	0.00824	-1.5694	-0.45181	-0.076599	-0.32272	-0.14572	-0.3978	-0.49225	-0.30868	0.010681	-0.038147	0.005341	-0.009003	-0.25818	0.002289	-0.001526
14.497	-0.001373	0.005951	-0.24643	-0.010834	-0.008698	-0.039978	0.22064	0.005035	0.15549	0.029449	-0.010834	0.003662	-0.028076	0.02182	0.13229	-0.006866	0.065613	-1.4603	-0.4306	-0.12131	-0.09079	-0.26062	-0.34744	-0.40222	-0.39475	0.007782	1.0004	-0.00351	0.048523	-0.36819	0.000916	-0.003052
14.498	0.00824	-0.015717	-0.21744	-0.0177	-0.00351	-0.044098	0.1239	0.002289	0.16373	0.03006	-0.17197	0.003662	-0.048676	0.056915	-0.007324	-0.026703	0.073547	-1.4217	0.51254	-0.073395	0.37918	-0.3537	-0.042725	-0.084076	-0.5014	-0.002899	1.5036	-0.006104	-0.077667	-0.33447	0.001373	-0.005493
14.499	0.006561	-0.025177	-0.19012	-0.005035	-0.009918	-0.044403	0.071259	0.00885	0.1796	0.026398	-0.17929	0.004578	-0.027924	-0.055542	0.021973	-0.014648	0.0383	-1.3191	-0.26352	0.064697	0.40817	-0.36957	0.2861	-0.14465	-0.50262	-0.001221	0.92926	-0.005493	-0.098724	-0.2298	-0.001526	0.002441
14.5	-0.003967	-0.056763	-0.15778	0.009308	-0.008392	-0.048065	0.031433	0.008698	0.19379	0.016174	-0.12421	0.007019	-0.014343	-0.081177	0.17029	-0.006256	0.016022	-1.2589	0.11673	0.13138	0.075989	-0.28748	0.39337	-0.14725	-0.41458	0.005646	-0.9668	-0.003967	0.17761	-0.242	-0.00061	-0.001831
14.501	-0.00412	-0.053558	-0.16251	0.007935	-0.010986	-0.02121	0.031281	-0.000458	0.1741	-0.019379	-0.085144	0.008087	0.009918	-0.002441	0.27359	0.000153	0.008392	-1.1845	0.023499	0.084229	-0.11795	-0.077515	0.30823	-0.12344	-0.36255	0.002289	-1.1804	-0.005798	0.30579	-0.13611	-0.005798	-0.001373
14.502	-0.00351	-0.090637	-0.18066	-0.000153	-0.013428	-0.042725	0.044556	-0.000153	0.17014	0.016632	-0.12543	0.007629	-0.024414	0.009308	0.18677	-0.019684	0.024872	-1.2613	0.010834	0.035858	-0.52048	0.13443	0.12634	0.17838	-0.3183	0.005493	-0.80017	-0.005035	0.37094	0.10391	0.003052	-0.005798
14.503	-0.00824	-0.06134	-0.19028	0.008545	-0.008545	-0.037537	0.002594	-0.008545	0.15579	-0.004425	-0.12466	0.00473	-0.028992	0.026398	0.14023	-0.000305	-0.080261	-1.2767	-0.44311	0.010681	-0.15427	0.12299	0.016785	0.37567	-0.15717	0.002747	-0.45197	-0.008698	0.242	0.17532	-0.000305	-0.010071
14.504	-0.002289	-0.06485	-0.16953	0.01358	-0.010986	-0.021667	-0.11932	-0.004272	0.12756	0.004272	-0.009918	0.003204	0.006409	0.071106	0.08316	-0.005646	-0.048218	-1.1598	-0.021362	-0.000458	-0.032654	-0.047913	0.04776	0.29938	0.005341	-0.010834	-0.041199	-0.00885	0.18677	0.082397	-0.005798	-0.003052
14.505	-0.008698	-0.060577	-0.17212	0.017395	-0.016785	-0.034485	-0.075226	0.001221	0.13092	-0.009155	0.092621	0.003204	0.004425	0.10193	0.075073	0.001373	0.002899	-1.0635	0.21957	-0.087585	-0.25452	0.055695	0.047913	0.28793	0.10864	-0.00351	0.56427	-0.010681	0.068817	0.13947	0	-0.010834
14.506	-0.006409	-0.081482	-0.15137	-0.00885	-0.008545	-0.030975	0.015106	0.004425	0.12253	0.016632	0.11749	0.00351	-0.046844	0.10773	-0.010071	0.005646	-0.052948	-0.96924	0.04715	-0.093994	-0.39368	0.091553	0.15976	0.3035	0.052795	0.006866	0.76446	-0.009308	0.010529	0.11169	0.002289	-0.00351
14.507	-0.003815	-0.077057	-0.16159	-0.030212	-0.012512	-0.034027	0.18539	0.004425	0.10498	-0.010681	0.10605	-0.001526	-0.046387	0.038757	-0.16525	-0.011292	-0.037994	-0.92972	0.12512	-0.099182	0.2243	-0.00885	0.25696	0.069275	-0.022888	-0.004883	1.002	-0.009155	-0.064087	0.044556	0.00061	0.001526
14.508	-0.005798	-0.076904	-0.18997	-0.012207	-0.001831	-0.041656	0.24048	0.006104	0.096436	0.002594	0.084686	0.000916	-0.029755	-0.020142	-0.070038	0.004425	-0.087891	-0.90836	0.21011	0.017395	0.43411	0.014191	0.2417	-0.076447	-0.007172	-0.003052	0.52612	-0.009308	0.012665	0.13626	-0.000305	0.004425
14.509	-0.007629	-0.070343	-0.16373	0.000305	-0.001221	-0.032959	0.092773	0.006561	0.076752	0.007477	0.036316	0.013733	-0.040741	0.028534	0.063477	-0.012512	-0.092926	-0.87997	0.53863	0.11124	-0.015106	-0.023041	0.18143	-0.041504	0.041046	-0.009918	-0.050201	-0.007782	-0.27054	0.18539	-0.005798	0.011292
14.51	-0.003357	-0.046692	-0.13672	0.014801	-0.00061	-0.009613	-0.14389	0.001678	0.096893	-0.003357	0.042419	-0.001373	-0.052338	0.045624	0.13001	-0.001526	-0.057526	-0.78827	-0.06134	0.18982	-0.072327	0.037842	0.20462	-0.016937	0.025482	-0.002747	-1.131	-0.005798	-0.4097	0.13229	-0.008698	0.015259
14.511	-0.00412	-0.10422	-0.1387	0.032196	0.001221	-0.027008	-0.16525	0.004272	0.1033	0.003967	0.032043	0.005341	-0.058899	-0.021973	0.17593	0.009308	-0.048523	-0.76843	-0.15717	0.19531	-0.092163	0.15762	0.13336	0.020752	0.016479	0.010376	-0.9671	-0.011139	-0.44571	0.065765	0.001068	0.023499
14.512	-0.006866	-0.12619	-0.13886	-0.001068	-0.002441	-0.022125	-0.12039	0.002136	0.11627	0.020142	0.039825	0.003052	-0.047607	0.027008	0.14374	-0.006714	-0.057678	-0.74387	-0.37003	0.040588	0.052643	0.10742	0.040741	0.23453	0.071869	0.007324	-0.43259	-0.003662	0.33035	0.048981	-0.00061	0.016479
14.513	-0.006409	-0.13092	-0.14038	-0.014343	-0.004425	-0.033875	-0.10742	-0.003815	0.11719	0.024414	0.046844	0.005188	-0.066986	0.048065	0.10315	0.001221	-0.041351	-0.80017	-0.39017	-0.065308	0.050201	0.058594	0.080872	0.37811	0.13275	0.008392	-0.23987	-0.01236	0.33814	-0.046844	0.000458	0.01709
14.514	0.000763	-0.12039	-0.12375	0.001984	-0.004425	-0.001678	-0.16846	-0.019379	0.10483	0.009613	0.04425	0.000916	-0.075226	0.089264	0.043335	0.005493	-0.020294	-0.70175	-0.56	-0.11765	-0.045319	0.004883	0.086212	0.20645	0.12299	0.001068	-0.28046	-0.00351	-0.44067	-0.010986	-0.000153	0.023346
14.515	0.003967	-0.11871	-0.099182	-0.000153	-0.005035	-0.019989	-0.080261	-0.023499	0.10437	-0.010376	0.035095	0.000458	-0.008545	0.064087	-0.039825	0.005798	-0.026703	-0.64468	-0.33234	-0.10178	-0.00412	0.11765	0.11414	0.1712	0.37674	0.008545	-0.17777	-0.00412	-0.32364	0.046387	-0.000458	0.022278
14.516	0.001831	-0.16129	-0.12909	0.023346	0.002747	-0.020447	-0.008545	-0.022583	0.11597	0.000916	0.016785	0.002441	0.016479	0.005646	-0.079498	-0.001526	-0.026245	-0.67474	0.24674	-0.078735	0.075684	0.19363	0.19257	0.085602	0.59998	-0.001221	-0.12253	0.005341	0.82047	0.011749	0.002289	0.018921
14.517	0.003204	-0.17532	-0.1326	0.020905	0.000305	-0.03006	-0.004425	-0.00946	0.10727	0.021973	0.007477	0.005341	-0.002594	-0.027161	-0.031891	-0.011292	-0.027618	-0.80215	-0.43671	-0.002136	0.034485	0.15945	0.1268	0.054626	0.47852	-0.006104	-0.058594	-0.005341	0.68649	-0.069275	0.000305	0.00885
14.518	0.009003	-0.21484	-0.10284	0.012054	-0.00351	-0.022583	0.06012	-0.014038	0.096436	0.025177	0.019226	0.002594	-0.050507	0.023804	-0.004883	0.001984	-0.014648	-0.84732	-0.51285	0.088348	0.10666	0.1445	0.076141	-0.013885	0.20203	-0.02243	-0.009003	-0.003967	0.30304	-0.032501	-0.00061	0.002289
14.519	0.003815	-0.21362	-0.082245	-0.013123	0.00061	-0.013123	0.11749	-0.014954	0.075531	0.030518	0.063477	0.003967	-0.071106	0.008087	0.001373	0.005646	0.002899	-0.91415	-0.64926	0.072479	0.19134	0.12405	0.06897	-0.10712	-0.11276	-0.03067	0.036011	-0.00473	-0.062103	-0.031433	-0.001831	0.003967
14.52	0.001678	-0.24643	-0.074921	-0.014648	-0.006561	-0.021973	0.19592	-0.007477	0.053711	0.018768	0.037231	0.000305	-0.049438	0.0383	-0.007324	-0.015717	-0.010223	-0.89676	-0.040283	0.068359	0.13397	0.1387	0.1178	-0.095825	-0.36194	-0.015564	0.081787	-0.005188	-0.028992	-0.042419	0.002594	0.001221
14.521	0.002747	-0.23361	-0.066986	-0.041046	-0.005188	-0.019684	0.29373	-0.002747	0.028076	-0.004272	0.026855	0.007629	-0.024719	0.0354	0.002136	-0.016785	-0.028992	-0.88242	0.15289	0.054626	0.015259	0.16861	0.019073	0.019226	-0.56656	-0.020142	0.11963	-0.005188	0.38574	-0.011902	-0.000458	0.008545
14.522	0.008087	-0.25436	-0.06424	-0.040894	-0.003967	-0.019684	0.33981	-0.017242	0.00885	0.000916	0.045471	0.005646	-0.052795	0.043488	-0.036621	-0.009918	-0.028381	-0.87509	-0.081787	-0.036621	-0.005341	0.089722	-0.03891	0.052643	-0.36133	-0.02243	0.15137	-0.004883	0.62454	0.028229	0.003967	-0.005341
14.523	0.00824	-0.26611	-0.055389	-0.021667	-0.00473	-0.023956	0.29541	-0.011139	0.01709	0.008545	0.097809	0.002747	-0.089417	0.038452	0.55069	-0.002899	-0.018311	-0.90637	-0.020142	-0.031433	0.073853	-0.016479	-0.014496	0.040894	-0.12253	-0.021667	0.1506	-0.001373	0.92056	0.006104	0.009155	-0.011902
14.524	0.008392	-0.26504	-0.031128	-0.019073	0.009003	-0.01709	0.26291	-0.001068	0.01297	0.008392	0.007477	0.003815	-0.074615	0.074158	0.079651	-0.005035	-0.037994	-0.87921	-0.16556	-0.005951	0.036926	-0.012817	0.090485	-0.067902	-0.098267	-0.010681	0.16022	-0.00473	0.11246	-0.025482	0.001831	-0.008698
14.525	0.006256	-0.28641	-0.030365	0.000916	0.006714	-0.017548	0.26337	0.01297	0.007782	0.011597	-0.1091	0.00824	-0.029755	0.095978	-0.11169	0.005035	-0.020752	-0.8493	-0.15869	-0.088348	-0.021973	0.033112	0.080261	-0.25711	-0.10239	-0.005493	0.11047	-0.005188	-0.10986	-0.051117	0.001221	-0.007324
14.526	0.007019	-0.28397	-0.017395	0.016022	0.007172	0.010681	0.24078	0.005646	0.019379	0.013275	-0.072021	0.007477	-0.054321	0.103	0.00351	0.003357	0.00473	-0.90637	0.10529	-0.11276	0.009155	0.03006	0.13779	-0.18982	-0.11643	0.000305	0.025482	-0.004578	0.58212	-0.10605	0	-0.002594
14.527	0.00885	-0.29098	-0.019989	0.014343	0.000305	0.001831	0.22568	0.006714	0.018311	0.021057	0.054779	0.002594	-0.096436	0.11932	-0.38406	-0.000305	0.036163	-0.86304	-0.55786	-0.056763	-0.11917	0.048065	0.14648	-0.17593	-0.17395	-0.007782	0.066681	-0.002747	-1.1324	-0.083923	0.001984	-0.008698
14.528	0.003204	-0.31265	-0.013275	-0.013275	-0.001984	0.029449	0.1889	0.008392	0.006409	0.01236	0.13275	0.002747	-0.082397	0.097046	-0.36179	-0.019989	0.060425	-0.84671	-0.55328	0.020142	-0.11322	0.012207	0.084229	-0.19257	-0.18906	-0.00824	0.18494	-0.003357	-1.4574	0.018768	0.00061	-0.017242
14.529	0.006866	-0.36163	-0.013428	-0.026093	0.005188	0.014191	0.13626	0.011597	0.001526	0.007019	0.099335	0.005035	-0.037994	0.093079	0.1976	0.001068	0.07309	-0.73273	-0.26352	0.051422	-0.021057	-0.00412	0.021515	-0.24658	-0.11093	-0.010834	0.15671	-0.006104	-0.080719	-0.007172	0.003662	-0.025482
14.53	-0.000153	-0.36087	-0.021515	-0.008698	-0.001373	0.025635	0.20004	0.007935	0.011444	-0.016022	0.014648	0.00351	-0.022888	0.1326	0.019073	0.003967	0.049133	-0.6427	-0.64712	0.055237	-0.010986	0.004272	-0.070496	-0.090485	0.20676	-0.005798	0.11063	-0.009918	0.11215	-0.092468	0.002289	-0.026093
14.531	-0.007629	-0.40878	-0.029755	-0.006866	-0.004272	0.016327	0.26657	0.013733	0.027313	0.001984	-0.014801	0.004578	-0.055695	0.16007	-0.036621	-0.002136	0.029602	-0.56244	-0.61783	0.06485	-0.076447	0.066223	0.20554	-0.030212	0.21469	-0.007629	0.097656	-0.010681	-0.50186	-0.071259	0.001068	-0.022583
